<svg xmlns="http://www.w3.org/2000/svg" width="38.03" height="35" viewBox="0 0 38.03 35">
  <g id="Group_1827" data-name="Group 1827" transform="translate(-335.671 -342.885)">
    <path
      id="Path_1572"
      data-name="Path 1572"
      d="M391.376,351.136h-8.252v-8.252h-8.451v8.252h-8.252v8.451h8.252v8.252h8.451v-8.252h8.252Z"
      transform="translate(-24.212)"
      fill="#109d48"
      style="isolation: isolate"
    />
    <g id="Group_1826" data-name="Group 1826" transform="translate(335.671 370.869)">
      <g id="Group_1821" data-name="Group 1821" transform="translate(0 0)">
        <path
          id="Path_1573"
          data-name="Path 1573"
          d="M363.5,481.525H335.671v-7.016h34.841Z"
          transform="translate(-335.671 -474.509)"
          fill="#109d48"
          style="isolation: isolate"
        />
        <path
          id="Path_1574"
          data-name="Path 1574"
          d="M466.546,481.525l7.016-7.016h3.189l-7.016,7.016Z"
          transform="translate(-438.721 -474.509)"
          fill="#fcd305"
          style="isolation: isolate"
        />
      </g>
      <g id="Group_1825" data-name="Group 1825" transform="translate(3.747 1.098)">
        <g id="Group_1822" data-name="Group 1822">
          <path
            id="Path_1575"
            data-name="Path 1575"
            d="M355.229,483.922h.391v-.837h-.391s-.907.1-.907-1.287.907-1.287.907-1.287h.391v-.837h-.391a2.134,2.134,0,0,0,0,4.248Z"
            transform="translate(-353.296 -479.673)"
            fill="#fff"
          />
          <path
            id="Path_1576"
            data-name="Path 1576"
            d="M378.463,487.688v-2.023h-.837v2.023a.316.316,0,0,1-.344.339.325.325,0,0,1-.344-.339v-2.023H376.1v2.023c0,.171.041.971,1.181.971S378.463,487.872,378.463,487.688Z"
            transform="translate(-371.252 -484.391)"
            fill="#fff"
          />
          <path
            id="Path_1577"
            data-name="Path 1577"
            d="M405.609,479.675l-.6,2.981-.6-2.981h-1.05l1.063,4.248H405.6l1.063-4.248Z"
            transform="translate(-392.721 -479.675)"
            fill="#fff"
          />
          <path
            id="Path_1578"
            data-name="Path 1578"
            d="M367.024,486.208v-.558h-.837v2.975h.837v-1.171s.09-1.156,1-1.156v-.648A.97.97,0,0,0,367.024,486.208Z"
            transform="translate(-363.446 -484.376)"
            fill="#fff"
          />
          <path
            id="Path_1579"
            data-name="Path 1579"
            d="M433.258,486.208v-.558h-.837v2.975h.837v-1.171s.09-1.156,1-1.156v-.648A.97.97,0,0,0,433.258,486.208Z"
            transform="translate(-415.599 -484.376)"
            fill="#fff"
          />
          <path
            id="Path_1580"
            data-name="Path 1580"
            d="M390.347,485.665h-2.463v.648h1.043l-1.33,2.327h2.653v-.648h-1.233Z"
            transform="translate(-380.304 -484.391)"
            fill="#fff"
          />
          <path
            id="Path_1581"
            data-name="Path 1581"
            d="M419.005,487.264h1.769c0-.758-.125-1.739-1.247-1.739a1.328,1.328,0,0,0-1.379,1.5,1.428,1.428,0,0,0,1.435,1.5,1.667,1.667,0,0,0,1.121-.324v-.577a2.445,2.445,0,0,1-.931.288A.752.752,0,0,1,419.005,487.264Zm.425-1.114c.447,0,.432.683.432.683H419S418.968,486.15,419.43,486.15Z"
            transform="translate(-404.36 -484.281)"
            fill="#fff"
          />
          <path
            id="Path_1582"
            data-name="Path 1582"
            d="M457.114,487.264h1.769c0-.758-.125-1.739-1.246-1.739a1.328,1.328,0,0,0-1.379,1.5,1.428,1.428,0,0,0,1.435,1.5,1.667,1.667,0,0,0,1.121-.324v-.577a2.443,2.443,0,0,1-.931.288A.752.752,0,0,1,457.114,487.264Zm.425-1.114c.447,0,.432.683.432.683h-.857S457.077,486.15,457.539,486.15Z"
            transform="translate(-434.367 -484.281)"
            fill="#fff"
          />
          <path
            id="Path_1583"
            data-name="Path 1583"
            d="M443.441,479.675V481.3a.8.8,0,0,0-.717-.353c-.718,0-1.091.652-1.091,1.559s.533,1.42,1.036,1.42a1.045,1.045,0,0,0,.772-.324v.324h.837v-4.248Zm0,3.247s-.2.379-.473.379-.473-.369-.473-.867.16-.887.478-.887a.563.563,0,0,1,.468.3Z"
            transform="translate(-422.851 -479.674)"
            fill="#fff"
          />
        </g>
        <g id="Group_1824" data-name="Group 1824" transform="translate(25.04 1.487)">
          <path
            id="Path_1584"
            data-name="Path 1584"
            d="M471.516,487.549a.441.441,0,1,1,.441-.441A.441.441,0,0,1,471.516,487.549Zm0-.8a.359.359,0,1,0,.359.359A.36.36,0,0,0,471.516,486.749Z"
            transform="translate(-471.075 -486.667)"
            fill="#fff"
          />
          <g id="Group_1823" data-name="Group 1823" transform="translate(0.269 0.221)">
            <path
              id="Path_1585"
              data-name="Path 1585"
              d="M472.342,488.146v-.44h.2a.261.261,0,0,1,.089.012.1.1,0,0,1,.049.042.125.125,0,0,1,.018.066.11.11,0,0,1-.03.079.153.153,0,0,1-.094.041.145.145,0,0,1,.035.022.294.294,0,0,1,.048.059l.077.12h-.073l-.058-.092c-.017-.026-.031-.047-.042-.061a.129.129,0,0,0-.03-.029.077.077,0,0,0-.026-.012.166.166,0,0,0-.033,0H472.4v.2Zm.058-.246h.125a.187.187,0,0,0,.063-.008.066.066,0,0,0,.034-.026.071.071,0,0,0,.012-.04.066.066,0,0,0-.023-.051.107.107,0,0,0-.072-.02H472.4Z"
              transform="translate(-472.342 -487.706)"
              fill="#fff"
            />
          </g>
        </g>
      </g>
    </g>
  </g>
</svg>