<?xml version="1.0" encoding="UTF-8"?>
<!DOCTYPE svg PUBLIC "-//W3C//DTD SVG 1.1//EN" "http://www.w3.org/Graphics/SVG/1.1/DTD/svg11.dtd">
<svg xmlns="http://www.w3.org/2000/svg" version="1.1" width="563px" height="498px" style="shape-rendering:geometricPrecision; text-rendering:geometricPrecision; image-rendering:optimizeQuality; fill-rule:evenodd; clip-rule:evenodd" xmlns:xlink="http://www.w3.org/1999/xlink">
<g><path style="opacity:1" fill="#fefffe" d="M -0.5,-0.5 C 187.167,-0.5 374.833,-0.5 562.5,-0.5C 562.5,165.5 562.5,331.5 562.5,497.5C 374.833,497.5 187.167,497.5 -0.5,497.5C -0.5,331.5 -0.5,165.5 -0.5,-0.5 Z"/></g>
<g><path style="opacity:1" fill="#2b8b41" d="M 301.5,133.5 C 336.329,134.498 371.329,134.832 406.5,134.5C 406.5,169.167 406.5,203.833 406.5,238.5C 371.594,238.171 336.76,238.504 302,239.5C 301.5,274.498 301.333,309.498 301.5,344.5C 266.5,344.5 231.5,344.5 196.5,344.5C 196.5,309.167 196.5,273.833 196.5,238.5C 161.5,238.5 126.5,238.5 91.5,238.5C 91.5,203.5 91.5,168.5 91.5,133.5C 126.5,133.5 161.5,133.5 196.5,133.5C 196.5,98.5 196.5,63.5 196.5,28.5C 231.5,28.5 266.5,28.5 301.5,28.5C 301.5,63.5 301.5,98.5 301.5,133.5 Z"/></g>
<g><path style="opacity:1" fill="#79c98b" d="M 301.5,133.5 C 336.833,133.5 372.167,133.5 407.5,133.5C 407.832,168.671 407.498,203.671 406.5,238.5C 406.5,203.833 406.5,169.167 406.5,134.5C 371.329,134.832 336.329,134.498 301.5,133.5 Z"/></g>
<g><path style="opacity:1" fill="#2d8b42" d="M 40.5,383.5 C 186.833,383.5 333.167,383.5 479.5,383.5C 450.833,412.5 422.167,441.5 393.5,470.5C 393.167,470.5 392.833,470.5 392.5,470.5C 275.167,470.5 157.833,470.5 40.5,470.5C 40.5,441.5 40.5,412.5 40.5,383.5 Z"/></g>
<g><path style="opacity:1" fill="#e7cd0c" d="M 479.5,383.5 C 493.504,383.333 507.504,383.5 521.5,384C 492.5,413 463.5,442 434.5,471C 420.817,471.696 407.151,471.529 393.5,470.5C 422.167,441.5 450.833,412.5 479.5,383.5 Z"/></g>
<g><path style="opacity:1" fill="#f8faf7" d="M 106.5,396.5 C 110.5,396.5 114.5,396.5 118.5,396.5C 118.824,400.555 118.491,404.555 117.5,408.5C 110.044,405.812 104.878,408.145 102,415.5C 101.139,421.585 101.473,427.585 103,433.5C 106.839,438.337 111.673,439.67 117.5,437.5C 118.66,441.459 118.827,445.459 118,449.5C 102.516,452.689 92.516,446.689 88,431.5C 84.3043,414.317 90.471,402.65 106.5,396.5 Z"/></g>
<g><path style="opacity:1" fill="#9bbb91" d="M 347.5,397.5 C 347.666,403.509 347.499,409.509 347,415.5C 346.283,414.956 345.783,414.289 345.5,413.5C 346.167,408.167 346.833,402.833 347.5,397.5 Z"/></g>
<g><path style="opacity:1" fill="#fbfcfb" d="M 347.5,397.5 C 351.5,397.5 355.5,397.5 359.5,397.5C 359.5,414.833 359.5,432.167 359.5,449.5C 355.833,449.5 352.167,449.5 348.5,449.5C 348.657,448.127 348.49,446.793 348,445.5C 336.301,453.146 328.634,450.146 325,436.5C 323.752,429.785 324.752,423.452 328,417.5C 332.887,412.484 338.721,411.15 345.5,413.5C 345.783,414.289 346.283,414.956 347,415.5C 347.499,409.509 347.666,403.509 347.5,397.5 Z"/></g>
<g><path style="opacity:1" fill="#f9fbf9" d="M 222.5,398.5 C 227.167,398.5 231.833,398.5 236.5,398.5C 238.345,409.215 240.511,419.882 243,430.5C 246.244,420.055 248.744,409.389 250.5,398.5C 255.167,398.5 259.833,398.5 264.5,398.5C 259.555,415.399 254.889,432.399 250.5,449.5C 245.57,449.803 240.737,449.469 236,448.5C 231.432,431.818 226.932,415.151 222.5,398.5 Z"/></g>
<g><path style="opacity:1" fill="#f8faf7" d="M 122.5,412.5 C 126.167,412.5 129.833,412.5 133.5,412.5C 133.34,414.199 133.506,415.866 134,417.5C 136.623,413.097 140.457,411.431 145.5,412.5C 145.5,415.833 145.5,419.167 145.5,422.5C 141.316,421.704 138.15,423.037 136,426.5C 135.5,434.159 135.334,441.826 135.5,449.5C 131.167,449.5 126.833,449.5 122.5,449.5C 122.5,437.167 122.5,424.833 122.5,412.5 Z"/></g>
<g><path style="opacity:1" fill="#f9fbf8" d="M 148.5,412.5 C 152.5,412.5 156.5,412.5 160.5,412.5C 160.334,421.506 160.5,430.506 161,439.5C 163.333,442.167 165.667,442.167 168,439.5C 168.5,430.506 168.666,421.506 168.5,412.5C 172.5,412.5 176.5,412.5 180.5,412.5C 180.666,422.172 180.5,431.839 180,441.5C 174.955,449.409 167.788,452.242 158.5,450C 155.098,448.6 152.264,446.433 150,443.5C 148.574,433.246 148.074,422.912 148.5,412.5 Z"/></g>
<g><path style="opacity:1" fill="#f9fbf9" d="M 273.5,412.5 C 290.5,410.167 297.833,417.5 295.5,434.5C 288.137,434.169 280.803,434.503 273.5,435.5C 276.34,441.399 281.006,443.566 287.5,442C 293.491,437.615 295.658,439.115 294,446.5C 285.016,451.986 276.182,451.82 267.5,446C 260.621,437.793 259.788,428.96 265,419.5C 267.441,416.546 270.275,414.213 273.5,412.5 Z"/></g>
<g><path style="opacity:1" fill="#f9fbf9" d="M 300.5,412.5 C 304.167,412.5 307.833,412.5 311.5,412.5C 311.34,414.199 311.506,415.866 312,417.5C 314.578,413.095 318.411,411.428 323.5,412.5C 323.5,415.5 323.5,418.5 323.5,421.5C 319.112,420.943 315.945,422.61 314,426.5C 313.5,434.159 313.334,441.826 313.5,449.5C 309.167,449.5 304.833,449.5 300.5,449.5C 300.5,437.167 300.5,424.833 300.5,412.5 Z"/></g>
<g><path style="opacity:1" fill="#fafbf9" d="M 378.5,411.5 C 393.851,411.529 400.185,419.196 397.5,434.5C 390.137,434.169 382.803,434.503 375.5,435.5C 378.022,441.18 382.356,443.346 388.5,442C 391,441.625 393.333,440.792 395.5,439.5C 397.954,444.923 396.287,448.09 390.5,449C 369.399,452.232 360.899,443.399 365,422.5C 368.244,417.07 372.744,413.403 378.5,411.5 Z"/></g>
<g><path style="opacity:1" fill="#fafbf9" d="M 199.5,439.5 C 198.957,439.56 198.624,439.893 198.5,440.5C 203.12,441.493 207.786,441.827 212.5,441.5C 212.5,444.167 212.5,446.833 212.5,449.5C 202.161,449.666 191.828,449.5 181.5,449C 186.74,439.857 191.74,430.524 196.5,421C 192.514,420.501 188.514,420.334 184.5,420.5C 184.5,417.833 184.5,415.167 184.5,412.5C 194.506,412.334 204.506,412.5 214.5,413C 209.615,421.942 204.615,430.775 199.5,439.5 Z"/></g>
<g><path style="opacity:1" fill="#43944f" d="M 407.5,424.5 C 405.72,423.01 405.054,421.01 405.5,418.5C 406.117,418.389 406.617,418.056 407,417.5C 407.497,419.81 407.663,422.143 407.5,424.5 Z"/></g>
<g><path style="opacity:1" fill="#c8dbc4" d="M 411.5,416.5 C 410.448,416.351 409.448,416.517 408.5,417C 410.116,417.615 411.449,418.615 412.5,420C 411.272,421.49 411.272,422.99 412.5,424.5C 411.25,424.423 410.417,423.756 410,422.5C 409.583,423.756 408.75,424.423 407.5,424.5C 407.663,422.143 407.497,419.81 407,417.5C 406.617,418.056 406.117,418.389 405.5,418.5C 405.577,417.25 406.244,416.417 407.5,416C 409.066,415.235 410.399,415.402 411.5,416.5 Z"/></g>
<g><path style="opacity:1" fill="#318d44" d="M 277.5,419.5 C 282.649,419.651 284.982,422.318 284.5,427.5C 281.167,427.5 277.833,427.5 274.5,427.5C 274.016,424.212 275.016,421.545 277.5,419.5 Z"/></g>
<g><path style="opacity:1" fill="#318d44" d="M 379.5,419.5 C 384.58,419.62 386.913,422.287 386.5,427.5C 383.167,427.5 379.833,427.5 376.5,427.5C 376.018,424.169 377.018,421.503 379.5,419.5 Z"/></g>
<g><path style="opacity:1" fill="#4c9755" d="M 411.5,416.5 C 412.685,417.857 413.685,419.357 414.5,421C 414.011,422.138 413.678,423.305 413.5,424.5C 413.167,424.5 412.833,424.5 412.5,424.5C 411.272,422.99 411.272,421.49 412.5,420C 411.449,418.615 410.116,417.615 408.5,417C 409.448,416.517 410.448,416.351 411.5,416.5 Z"/></g>
<g><path style="opacity:1" fill="#358e47" d="M 340.5,420.5 C 342.722,420.178 344.556,420.845 346,422.5C 346.667,428.167 346.667,433.833 346,439.5C 341.869,442.543 338.869,441.543 337,436.5C 335.52,430.451 336.686,425.118 340.5,420.5 Z"/></g>
<g><path style="opacity:1" fill="#c5d9c0" d="M 411.5,416.5 C 415.146,417.462 416.313,419.795 415,423.5C 414.617,424.056 414.117,424.389 413.5,424.5C 413.678,423.305 414.011,422.138 414.5,421C 413.685,419.357 412.685,417.857 411.5,416.5 Z"/></g>
<g><path style="opacity:1" fill="#40914b" d="M 412.5,424.5 C 410.833,425.833 409.167,425.833 407.5,424.5C 408.75,424.423 409.583,423.756 410,422.5C 410.417,423.756 411.25,424.423 412.5,424.5 Z"/></g>
<g><path style="opacity:1" fill="#c7dbc4" d="M 405.5,418.5 C 405.054,421.01 405.72,423.01 407.5,424.5C 409.167,425.833 410.833,425.833 412.5,424.5C 412.833,424.5 413.167,424.5 413.5,424.5C 412.848,425.725 411.681,426.392 410,426.5C 404.741,425.907 403.241,423.24 405.5,418.5 Z"/></g>
<g><path style="opacity:1" fill="#92bf96" d="M 199.5,439.5 C 203.833,440.167 208.167,440.833 212.5,441.5C 207.786,441.827 203.12,441.493 198.5,440.5C 198.624,439.893 198.957,439.56 199.5,439.5 Z"/></g>
<g><path style="opacity:1" fill="#7fce91" d="M 40.5,383.5 C 40.5,412.5 40.5,441.5 40.5,470.5C 157.833,470.5 275.167,470.5 392.5,470.5C 275.001,471.5 157.335,471.833 39.5,471.5C 39.1686,441.995 39.5019,412.662 40.5,383.5 Z"/></g>
</svg>
